<svg xmlns="http://www.w3.org/2000/svg" viewBox="0 0 1024 1024" role="img" aria-label="Arduino CLI Suite logo option D">
  <defs>
    <linearGradient id="bgD" x1="0" y1="0" x2="1" y2="1">
      <stop offset="0%" stop-color="#143047"/>
      <stop offset="100%" stop-color="#0E6D67"/>
    </linearGradient>
  </defs>

  <rect width="1024" height="1024" rx="220" fill="url(#bgD)"/>

  <circle cx="512" cy="512" r="290" fill="#0E2432" stroke="#9FDACF" stroke-width="16"/>
  <circle cx="512" cy="512" r="236" fill="none" stroke="#9FDACF" stroke-width="8" opacity="0.5"/>

  <g stroke="#9FDACF" stroke-width="16" stroke-linecap="round">
    <line x1="512" y1="206" x2="512" y2="154"/>
    <line x1="512" y1="870" x2="512" y2="818"/>
    <line x1="206" y1="512" x2="154" y2="512"/>
    <line x1="870" y1="512" x2="818" y2="512"/>
  </g>

  <rect x="336" y="394" width="352" height="236" rx="44" fill="#112E3B" stroke="#7FD2C3" stroke-width="12"/>
  <g stroke="#F4B13D" stroke-width="28" stroke-linecap="round" stroke-linejoin="round" fill="none">
    <path d="M410 468L478 512L410 556"/>
    <line x1="534" y1="556" x2="618" y2="556"/>
  </g>

  <g fill="#7FD2C3">
    <rect x="382" y="654" width="38" height="54" rx="10"/>
    <rect x="446" y="654" width="38" height="54" rx="10"/>
    <rect x="510" y="654" width="38" height="54" rx="10"/>
    <rect x="574" y="654" width="38" height="54" rx="10"/>
  </g>
</svg>
